<svg width="81" height="81" viewBox="0 0 81 81" fill="none" xmlns="http://www.w3.org/2000/svg">
<circle cx="40.1755" cy="40.1755" r="40.1755" fill="#8D8D8D"/>
<g clip-path="url(#clip0_901_7)">
<path d="M43.1799 40.6608C45.2236 40.3 46.6909 39.6817 47.7389 39.0118C46.062 37.0537 43.6515 35.7655 40.979 35.5078C39.2497 36.3838 37.3108 36.8991 35.2671 36.8991C33.2234 36.8991 31.2845 36.4353 29.5552 35.5078C24.4197 36.0746 20.3323 40.4031 20.3323 45.6591V51.7396C20.3323 52.2549 20.7515 52.6671 21.2755 52.6671H39.1449C39.0925 52.2549 39.0925 51.8426 39.0925 51.4304V45.2469C39.1449 42.9796 40.8218 41.0215 43.1799 40.6608Z" fill="white"/>
<path d="M35.3194 33.4468C40.2973 33.4468 44.3327 29.4787 44.3327 24.5838C44.3327 19.6888 40.2973 15.7207 35.3194 15.7207C30.3415 15.7207 26.3062 19.6888 26.3062 24.5838C26.3062 29.4787 30.3415 33.4468 35.3194 33.4468Z" fill="white"/>
<path d="M62.307 43.9586C57.7479 43.2372 55.2326 41.2275 54.0273 39.8363C53.5033 39.2694 52.56 39.2694 52.036 39.8363C50.7784 41.2275 48.3154 43.2372 43.7564 43.9586C43.0751 44.0617 42.6035 44.6285 42.6035 45.2984V51.4819C42.6035 58.3353 50.0447 63.1791 52.4028 64.5188C52.8221 64.7765 53.3461 64.7765 53.7653 64.5188C56.071 63.1791 63.5646 58.3353 63.5646 51.4819V45.2984C63.5122 44.6285 62.9882 44.0617 62.307 43.9586ZM58.3244 50.2452L52.9793 55.5012C52.6649 55.8104 52.2456 56.0165 51.774 56.0165C51.3024 56.0165 50.8832 55.8619 50.5687 55.5012L47.7914 52.7701C47.1102 52.1003 47.1102 51.0181 47.7914 50.3998C48.4726 49.7299 49.5731 49.7299 50.2019 50.3998L51.774 51.9457L55.9138 47.8748C56.5951 47.205 57.6955 47.205 58.3244 47.8748C58.9532 48.4932 58.9532 49.5753 58.3244 50.2452Z" fill="white"/>
</g>
<defs>
<clipPath id="clip0_901_7">
<rect x="15.7209" y="15.7207" width="52.4028" height="51.5294" rx="25.7647" fill="white"/>
</clipPath>
</defs>
</svg>
