<svg width="89" height="89" viewBox="0 0 89 89" fill="none" xmlns="http://www.w3.org/2000/svg">
<path d="M75.1249 19.1973H38.7951C36.223 19.1973 34.1137 21.1731 33.9179 23.6918C33.909 23.8164 33.9001 23.9499 33.9001 24.0834V25.0268V26.3618V48.2647C33.9001 50.9614 36.0895 53.1508 38.7951 53.1508H54.1565H54.4146H56.0433H56.96L69.0462 63.9732L68.441 53.1508H75.1249C77.8305 53.1508 80.0199 50.9614 80.0199 48.2647V24.0834C80.0199 21.3867 77.8305 19.1973 75.1249 19.1973Z" fill="white"/>
<path d="M38.7952 54.4854C35.3598 54.4854 32.5652 51.6908 32.5652 48.2643V26.3614V25.0264H13.8752C11.1696 25.0264 8.98022 27.2158 8.98022 29.9214V54.0938C8.98022 56.7994 11.1696 58.9888 13.8752 58.9888H32.0401L44.1263 69.8023L43.5211 58.9888H50.205C52.7771 58.9888 54.8864 57.013 55.0822 54.4854H53.7472H38.7952Z" fill="white"/>
</svg>
