<svg width="81" height="81" viewBox="0 0 81 81" fill="none" xmlns="http://www.w3.org/2000/svg">
<circle cx="40.1755" cy="40.1755" r="40.1755" fill="#9E2063"/>
<path d="M53.2186 61.2329H28.2587C25.5682 61.2329 23.3706 59.0713 23.3706 56.4249V23.6732C23.3706 21.0268 25.5682 18.8652 28.2587 18.8652H53.2053C55.8957 18.8652 58.0933 21.0268 58.0933 23.6732V56.4249C58.1067 57.6957 57.6005 58.901 56.6815 59.818C55.7625 60.7351 54.5372 61.2329 53.2186 61.2329ZM28.2587 22.7954C27.7659 22.7954 27.3663 23.1885 27.3663 23.6732V56.4249C27.3663 56.9097 27.7659 57.3027 28.2587 57.3027H53.2186C53.5382 57.3027 53.7513 57.1455 53.8446 57.0407C53.9378 56.949 54.0976 56.7393 54.0976 56.438V23.6732C54.0976 23.1885 53.6981 22.7954 53.2053 22.7954H28.2587Z" fill="white"/>
<path d="M46.7722 31.0484H34.2523C33.1468 31.0484 32.2544 30.1706 32.2544 29.0833C32.2544 27.9959 33.1468 27.1182 34.2523 27.1182H46.7722C47.8776 27.1182 48.77 27.9959 48.77 29.0833C48.77 30.1706 47.8776 31.0484 46.7722 31.0484Z" fill="white"/>
<path d="M46.7722 38.3589H34.2523C33.1468 38.3589 32.2544 37.4812 32.2544 36.3938C32.2544 35.3065 33.1468 34.4287 34.2523 34.4287H46.7722C47.8776 34.4287 48.77 35.3065 48.77 36.3938C48.77 37.4812 47.8776 38.3589 46.7722 38.3589Z" fill="white"/>
<path d="M46.7722 45.6695H34.2523C33.1468 45.6695 32.2544 44.7917 32.2544 43.7044C32.2544 42.617 33.1468 41.7393 34.2523 41.7393H46.7722C47.8776 41.7393 48.77 42.617 48.77 43.7044C48.77 44.7917 47.8776 45.6695 46.7722 45.6695Z" fill="white"/>
<path d="M46.7722 52.979H34.2523C33.1468 52.979 32.2544 52.1013 32.2544 51.0139C32.2544 49.9266 33.1468 49.0488 34.2523 49.0488H46.7722C47.8776 49.0488 48.77 49.9266 48.77 51.0139C48.77 52.1013 47.8776 52.979 46.7722 52.979Z" fill="white"/>
</svg>
