<svg width="81" height="81" viewBox="0 0 81 81" fill="none" xmlns="http://www.w3.org/2000/svg">
<circle cx="40.1755" cy="40.1755" r="40.1755" fill="#57A88E"/>
<path d="M40.7521 43.1602H36.8641C36.2881 43.1602 35.8081 43.6402 35.8081 44.2162V47.0002C35.8081 47.5762 36.2881 48.0561 36.8641 48.0561H40.7521C41.3281 48.0561 41.8081 47.5762 41.8081 47.0002V44.2162C41.7601 43.6402 41.3281 43.1602 40.7521 43.1602Z" fill="white"/>
<path d="M24.8161 51.8482C23.9521 51.8482 23.2801 51.1762 23.2801 50.3122V31.7362H54.3361V40.5682C55.3921 40.6162 56.4481 40.8082 57.4561 41.0482V26.6962C57.4561 24.1522 55.3921 22.0402 52.8001 22.0402H49.4401V19.5442C49.4401 18.7762 48.8161 18.2002 48.0961 18.2002H44.6881C43.9201 18.2002 43.3441 18.8242 43.3441 19.5442V21.9922H34.3201V19.5442C34.3201 18.7762 33.6961 18.2002 32.9761 18.2002H29.5201C28.7521 18.2002 28.1281 18.8242 28.1281 19.5442V21.9922H24.7681C22.2241 21.9922 20.1121 24.0562 20.1121 26.6482V50.2642C20.1121 52.8082 22.1761 54.9202 24.7681 54.9202H40.6081C40.5601 54.5362 40.5601 54.1042 40.5601 53.6722C40.5601 53.0482 40.6081 52.4242 40.7041 51.8002H24.8161V51.8482Z" fill="white"/>
<path d="M45.504 35.5283C44.928 35.5283 44.448 36.0083 44.448 36.5843V39.3683C44.448 39.9443 44.928 40.4243 45.504 40.4243H49.392C49.968 40.4243 50.448 39.9443 50.448 39.3683V36.5843C50.448 36.0083 49.968 35.5283 49.392 35.5283H45.504Z" fill="white"/>
<path d="M40.7521 35.5283H36.8641C36.2881 35.5283 35.8081 36.0083 35.8081 36.5843V39.3683C35.8081 39.9443 36.2881 40.4243 36.8641 40.4243H40.7521C41.3281 40.4243 41.8081 39.9443 41.8081 39.3683V36.5843C41.7601 36.0083 41.3281 35.5283 40.7521 35.5283Z" fill="white"/>
<path d="M33.1201 36.5843C33.1201 36.0083 32.6401 35.5283 32.0641 35.5283H28.1761C27.6001 35.5283 27.1201 36.0083 27.1201 36.5843V39.3683C27.1201 39.9443 27.6001 40.4243 28.1761 40.4243H32.0641C32.6401 40.4243 33.1201 39.9443 33.1201 39.3683V36.5843V36.5843Z" fill="white"/>
<path d="M32.112 43.1602H28.224C27.648 43.1602 27.168 43.6402 27.168 44.2162V47.0002C27.168 47.5762 27.648 48.0561 28.224 48.0561H32.112C32.688 48.0561 33.168 47.5762 33.168 47.0002V44.2162C33.12 43.6402 32.688 43.1602 32.112 43.1602Z" fill="white"/>
<path d="M53.7599 43.6406C48.1919 43.6406 43.6799 48.1526 43.6799 53.7206C43.6799 59.2886 48.1919 63.8006 53.7599 63.8006C59.3279 63.8006 63.8399 59.2886 63.8399 53.7206C63.8399 48.1526 59.3279 43.6406 53.7599 43.6406ZM58.3199 52.4726L53.2799 57.5126C52.9919 57.8006 52.5599 57.9446 52.1759 57.9446C51.7919 57.9446 51.3599 57.8006 51.0719 57.5126L48.5759 55.0166C47.9519 54.3926 47.9519 53.4326 48.5759 52.8086C49.1999 52.1846 50.1599 52.1846 50.7839 52.8086L52.2239 54.2486L56.2079 50.2646C56.8319 49.6406 57.7919 49.6406 58.4159 50.2646C59.0399 50.8886 58.9439 51.8486 58.3199 52.4726Z" fill="white"/>
</svg>
