<svg width="81" height="81" viewBox="0 0 81 81" fill="none" xmlns="http://www.w3.org/2000/svg">
<circle cx="40.1755" cy="40.1755" r="40.1755" fill="black"/>
<path d="M23.7599 45.0799C22.9799 43.4599 22.5599 41.8399 22.2599 40.6399C21.8999 39.1399 21.6599 37.6399 21.5399 36.0799C21.4799 35.8999 21.4799 35.6599 21.4799 35.4799C21.4799 35.2999 21.4799 35.0599 21.4799 34.8799L21.2999 34.9399C20.6399 35.1199 19.7999 35.2999 18.7199 35.8399C17.9999 36.1999 17.2199 36.5599 16.5599 37.3999C15.8999 38.1799 15.5399 39.1399 15.4199 40.2799C15.2399 42.2599 16.0799 43.6999 16.4999 44.4199C16.9799 45.1999 17.5799 46.1599 18.7799 46.6999C19.6799 47.0599 20.4599 46.9999 21.2399 46.9399C21.9599 46.8799 22.4399 46.7599 22.9199 46.5799C23.3399 46.4599 23.6999 46.3399 24.3599 46.2799C24.2399 46.0999 24.1199 45.8599 24.0599 45.6199C23.9399 45.4399 23.8199 45.2599 23.7599 45.0799Z" fill="white"/>
<path d="M44.3401 20L44.2801 20.06L43.8601 20.48C43.6201 20.72 43.4401 20.96 43.2001 21.14C42.0001 22.28 40.8001 23.42 39.5401 24.5C37.9801 25.88 36.6601 27.02 34.6801 28.34C33.4201 29.18 32.2801 29.78 30.0001 31.04C28.3801 31.88 27.3601 32.48 25.8601 33.14L25.3201 33.38C24.5401 33.74 23.8801 34.04 23.3401 34.28V35.6C23.4601 37.16 23.7001 38.72 24.0601 40.22C24.4201 41.6 24.8401 43.34 25.7401 45.02C25.8601 45.2 25.9801 45.44 26.1001 45.62C26.2201 45.8 26.3401 46.04 26.5201 46.22C27.8401 46.28 29.3401 46.16 31.0801 45.98C32.8201 45.8 34.8601 45.62 37.0201 45.62C41.3401 45.62 48.8401 47.78 51.1201 48.14C51.2401 42.8 50.5801 37.46 49.2001 32.24C48.1201 27.92 46.4401 23.78 44.3401 20Z" fill="white"/>
<path d="M55.56 20.6002C55.08 20.3602 54.6 20.6002 54.36 21.0202C54.12 21.5002 54.36 21.9802 54.78 22.2202C58.98 24.2002 61.68 28.7002 61.68 33.7402C61.68 36.3202 61.02 38.6602 59.76 40.7002C59.52 41.1202 59.64 41.6602 60.06 41.9602C60.18 42.0202 60.36 42.0802 60.54 42.0802C60.84 42.0802 61.14 41.9002 61.32 41.6602C62.76 39.3202 63.48 36.6202 63.48 33.7402C63.48 28.0402 60.36 22.8802 55.56 20.6002Z" fill="white"/>
<path d="M53.8801 24.8C53.4001 24.62 52.9201 24.8 52.6801 25.22C52.5001 25.7 52.6801 26.18 53.1001 26.42C55.7401 27.62 57.4801 30.56 57.4801 33.74C57.4801 35.6 56.8801 37.4 55.8601 38.78C55.5601 39.2 55.6201 39.74 56.0401 40.04C56.2201 40.16 56.4001 40.22 56.5801 40.22C56.8801 40.22 57.1201 40.1 57.3001 39.86C58.5601 38.18 59.2801 36.02 59.2801 33.74C59.3401 29.84 57.2401 26.36 53.8801 24.8Z" fill="white"/>
<path d="M40.7401 57.9799C40.6801 57.7999 40.5601 57.5599 40.4401 57.1999C40.3801 57.0199 40.2601 56.7799 40.2001 56.5399C39.4801 54.4999 39.5401 53.9599 39.5401 53.7199C39.5401 53.2999 39.6601 52.9399 39.9001 52.0999C40.0201 51.6799 40.0801 51.3799 40.2001 51.0799C40.3801 50.5399 40.5601 50.1199 40.6201 49.5799C40.6201 49.3999 40.6201 49.1599 40.6201 48.9199C40.6201 48.4999 40.5001 48.0199 40.3801 47.5999C39.3601 47.4799 38.4601 47.4199 37.6201 47.4199C35.4601 47.4199 33.4201 47.5999 31.6801 47.7799C29.9401 47.9599 28.4401 48.0799 27.1201 48.0199L27.6001 48.7999C27.6601 48.9199 27.9001 49.4599 28.2601 50.2399C29.5801 53.1799 32.4001 59.5399 33.1201 60.5599C34.0201 61.8199 34.7401 62.1799 35.2201 62.3599C35.6401 62.5399 36.0601 62.5999 36.5401 62.5999C37.0801 62.5999 37.6201 62.4799 38.2201 62.2399C39.6601 61.6999 40.5601 60.7999 40.8601 59.7199C40.9201 59.4799 40.9201 59.2399 40.9201 58.9999C40.9201 58.6999 40.8001 58.3999 40.7401 57.9799Z" fill="white"/>
<path d="M46.9199 18.1999C46.6799 17.7799 46.1399 17.5999 45.7199 17.8399C45.2999 18.0799 45.1199 18.6199 45.3599 19.0399C47.5199 22.9399 49.2599 27.1399 50.4599 31.6399C51.9599 37.0999 52.5599 42.7399 52.3199 48.3799C52.3199 48.8599 52.6799 49.2799 53.1599 49.3399C53.1599 49.3399 53.1599 49.3399 53.2199 49.3399C53.6999 49.3399 54.1199 48.9799 54.1199 48.4999C54.3599 42.7399 53.6999 36.9199 52.1999 31.2799C50.9399 26.5399 49.1999 22.2199 46.9199 18.1999Z" fill="white"/>
</svg>
