<svg width="81" height="81" viewBox="0 0 81 81" fill="none" xmlns="http://www.w3.org/2000/svg">
<circle cx="40.1755" cy="40.1755" r="40.1755" fill="#004A8D"/>
<path fill-rule="evenodd" clip-rule="evenodd" d="M63.1133 26.993C63.1133 25.0236 61.5172 23.4268 59.5484 23.4268C51.2539 23.4268 30.7461 23.4268 22.4516 23.4268C20.4829 23.4268 18.8867 25.0236 18.8867 26.993C18.8867 33.548 18.8867 47.439 18.8867 53.994C18.8867 55.9634 20.4829 57.5602 22.4516 57.5602C30.7461 57.5602 51.2539 57.5602 59.5484 57.5602C61.5172 57.5602 63.1133 55.9634 63.1133 53.994C63.1133 47.439 63.1133 33.548 63.1133 26.993ZM23.9118 54.8961H58.0883C59.4453 54.8961 60.5469 53.7938 60.5469 52.4365C60.5469 51.079 59.4453 49.977 58.0883 49.977H23.9118C22.5547 49.977 21.4532 51.079 21.4532 52.4365C21.4532 53.7938 22.5547 54.8961 23.9118 54.8961ZM50.0938 36.6104L33.9547 44.6804V28.5404L50.0938 36.6104Z" fill="white"/>
</svg>
