<svg width="81" height="81" viewBox="0 0 81 81" fill="none" xmlns="http://www.w3.org/2000/svg">
<circle cx="40.1755" cy="40.1755" r="40.1755" fill="#EDCD4C"/>
<path d="M41 17.4688C29.1406 17.4688 19.4375 27.3828 19.4375 39.5C19.4375 51.6172 29.1406 61.5312 41 61.5312C52.8594 61.5312 62.5625 51.6172 62.5625 39.5C62.5625 27.3828 52.8594 17.4688 41 17.4688ZM41 57.8594C31.0812 57.8594 23.0312 49.6344 23.0312 39.5C23.0312 29.3656 31.0812 21.1406 41 21.1406C50.9188 21.1406 58.9688 29.3656 58.9688 39.5C58.9688 49.6344 50.9188 57.8594 41 57.8594ZM53.5781 43.9797C53.5781 45.0078 52.7875 45.8156 51.7812 45.8156H38.4125C37.4062 45.8156 36.6156 45.0078 36.6156 43.9797V30.2469C36.6156 29.2187 37.4062 28.4109 38.4125 28.4109C39.4187 28.4109 40.2094 29.2187 40.2094 30.2469V42.1437H51.7812C52.7875 42.1437 53.5781 42.9516 53.5781 43.9797Z" fill="white"/>
</svg>
