<svg width="81" height="81" viewBox="0 0 81 81" fill="none" xmlns="http://www.w3.org/2000/svg">
<circle cx="40.1755" cy="40.1755" r="40.1755" fill="black"/>
<path d="M40.95 52.0484C40.95 52.4454 40.5244 52.7676 40 52.7676H22.9C22.3756 52.7676 21.95 52.4454 21.95 52.0484C21.95 50.9394 22.293 49.834 22.9428 48.8502C23.2411 48.3906 23.6201 47.9469 24.0657 47.5362C24.1243 47.4806 24.1841 47.4257 24.2449 47.3717C25.4542 46.2964 25.75 43.5979 25.75 41.9797V41.9797C25.75 41.3159 25.9542 40.655 26.3418 40.0681C26.5223 39.7905 26.7399 39.5352 27.004 39.2914C27.6804 38.6492 28.5392 38.1839 29.5471 37.9156C30.7688 37.5812 32.1321 37.5812 33.331 37.9098C34.3361 38.1781 35.2177 38.6492 35.8723 39.2691C36.1506 39.5266 36.3739 39.7855 36.5487 40.0545C36.942 40.6492 37.15 41.3159 37.15 41.9797V41.9797C37.15 43.5973 37.4455 46.2979 38.6554 47.3715C38.719 47.4279 38.7816 47.4852 38.8429 47.5434C39.2799 47.9469 39.658 48.3906 39.9601 48.8545C40.607 49.834 40.95 50.9394 40.95 52.0484ZM57.062 48.8552C56.758 48.3877 56.378 47.949 55.941 47.5463C55.88 47.4881 55.8179 47.4309 55.7547 47.3745C54.548 46.2982 54.25 43.5966 54.25 41.9797V41.9797C54.25 41.3181 54.041 40.6492 53.6515 40.0523C53.471 39.7862 53.2525 39.5273 52.977 39.2684C52.3215 38.6499 51.438 38.1752 50.431 37.9091C49.234 37.5783 47.866 37.5783 46.65 37.9163C45.643 38.1824 44.7785 38.6499 44.104 39.29C43.838 39.5345 43.6195 39.7934 43.439 40.0667C43.059 40.6564 42.85 41.3181 42.85 41.9797C42.85 42.3343 42.907 42.6789 43.0144 43.0087C43.3912 44.1655 43.1725 46.0427 42.1699 46.7317C42.047 46.8161 41.9272 46.903 41.8104 46.9925C41.4324 47.282 41.4057 47.8213 41.6625 48.2223V48.2223C42.4415 49.3874 42.85 50.7179 42.85 52.0484V52.0484C42.85 52.3896 43.084 52.7676 43.4252 52.7676H57.1C57.6225 52.7676 58.05 52.4439 58.05 52.0484C58.05 50.9408 57.708 49.8333 57.062 48.8552ZM40.95 26.8768H23.85C22.2787 26.8768 21 27.8448 21 29.0343V31.1056C21 32.2951 22.2787 33.2632 23.85 33.2632H25.1143C28.4899 33.2632 31.7945 34.2324 34.6354 36.0558V36.0558C34.8092 36.1665 35.0277 36.2262 35.25 36.2262C35.3288 36.2262 35.4087 36.219 35.4866 36.2032C35.7849 36.145 36.028 35.981 36.1382 35.7631V35.7631C36.9094 34.2303 38.4787 33.2632 40.1945 33.2632H40.95C42.5213 33.2632 43.8 32.2951 43.8 31.1056V29.0343C43.8 27.8448 42.5213 26.8768 40.95 26.8768ZM56.15 24H40.95C40.7725 24 40.5988 24.0125 40.4302 24.0363C39.1944 24.2111 39.7019 25.4384 40.95 25.4384V25.4384C43.572 25.4384 45.7 27.0494 45.7 29.0343V31.1056V31.1056C45.7 32.1596 45.3276 33.2282 45.4956 34.2687L45.7095 35.5933C45.757 35.881 46.023 36.1183 46.3935 36.1975C46.479 36.219 46.5645 36.2262 46.65 36.2262C46.935 36.2262 47.22 36.1255 47.4005 35.9529L49.7179 33.7092C51.4427 32.0393 53.7493 31.1056 56.15 31.1056V31.1056C57.7175 31.1056 59 30.1347 59 28.948V26.1576C59 24.9709 57.7175 24 56.15 24Z" fill="white"/>
</svg>
