<svg width="92" height="92" viewBox="0 0 92 92" fill="none" xmlns="http://www.w3.org/2000/svg">
<path d="M88.82 45.9475C88.8116 53.4369 86.8417 60.7935 83.1065 67.285C79.3712 73.7766 74.0009 79.1765 67.53 82.9475L66.92 83.3175C65.83 83.9275 64.71 84.4975 63.57 85.0175C55.126 88.8306 45.6747 89.8082 36.629 87.8043C27.5832 85.8003 19.4291 80.9224 13.3856 73.8998C7.34212 66.8772 3.73392 58.0872 3.10045 48.8438C2.46698 39.6005 4.84227 30.4004 9.87121 22.619C14.9002 14.8376 22.3126 8.89286 31.0003 5.6736C39.6881 2.45433 49.1845 2.13344 58.0697 4.75893C66.9549 7.38441 74.7518 12.8152 80.2945 20.2395C85.8372 27.6637 88.8281 36.6824 88.82 45.9475V45.9475Z" fill="#E31837" fill-opacity="0.2"/>
<path d="M88.82 45.9475C88.8116 53.4369 86.8417 60.7935 83.1065 67.285C79.3712 73.7766 74.0009 79.1765 67.53 82.9475L66.92 83.3175C65.83 83.9275 64.71 84.4975 63.57 85.0175C55.126 88.8306 45.6747 89.8082 36.629 87.8043C27.5832 85.8003 19.4291 80.9224 13.3856 73.8998C7.34212 66.8772 3.73392 58.0872 3.10045 48.8438C2.46698 39.6005 4.84227 30.4004 9.87121 22.619C14.9002 14.8376 22.3126 8.89286 31.0003 5.6736C39.6881 2.45433 49.1845 2.13344 58.0697 4.75893C66.9549 7.38441 74.7518 12.8152 80.2945 20.2395C85.8372 27.6637 88.8281 36.6824 88.82 45.9475V45.9475Z" stroke="#E31837" stroke-width="5" stroke-miterlimit="10"/>
<line x1="9.47605" y1="73.3542" x2="78.5269" y2="21.6437" stroke="#E31837" stroke-width="5"/>
</svg>
