<svg width="81" height="81" viewBox="0 0 81 81" fill="none" xmlns="http://www.w3.org/2000/svg">
<circle cx="40.1755" cy="40.1755" r="40.1755" fill="black"/>
<path d="M63.4999 53.6347V57.6497H50.2999V55.0647V53.6347C50.2999 53.3597 50.2999 53.1397 50.3549 52.9197C50.3549 52.8097 50.3549 52.6997 50.4099 52.6447C50.4099 52.5347 50.4649 52.4247 50.4649 52.3147C50.8499 50.4447 52.0049 48.9047 53.5999 47.9697C52.6649 47.0897 52.0599 45.8247 52.0599 44.3947C52.0599 41.8097 54.0949 39.7197 56.6249 39.5547C56.7349 39.5547 56.7899 39.5547 56.8999 39.5547C57.1199 39.5547 57.2849 39.5547 57.5049 39.6097C57.5599 39.6097 57.6149 39.6097 57.6699 39.6097C57.8349 39.6097 57.9999 39.6647 58.1649 39.7197C58.2199 39.7197 58.2199 39.7197 58.2749 39.7197C58.6599 39.8297 59.0449 39.9947 59.4299 40.2147C60.8599 41.0397 61.8499 42.6347 61.8499 44.3947C61.8499 45.8247 61.2449 47.0347 60.3099 47.9697C62.1799 49.0697 63.4999 51.1597 63.4999 53.6347ZM32.5899 52.5897C32.5899 52.4797 32.5349 52.3697 32.5349 52.2597C32.1499 50.3897 30.9949 48.8497 29.3999 47.9147C30.3349 47.0347 30.9399 45.7697 30.9399 44.3397C30.9399 41.7547 28.9049 39.6647 26.3749 39.4997C26.2649 39.4997 26.2099 39.4997 26.0999 39.4997C25.8799 39.4997 25.7149 39.4997 25.4949 39.5547C25.4399 39.5547 25.3849 39.5547 25.3299 39.5547C25.1649 39.5547 24.9999 39.6097 24.8349 39.6647C24.7799 39.6647 24.7799 39.6647 24.7249 39.6647C24.3399 39.7747 23.9549 39.9397 23.5699 40.1597C22.1399 40.9847 21.1499 42.5797 21.1499 44.3397C21.1499 45.7697 21.7549 46.9797 22.6899 47.9147C20.7099 49.0697 19.3899 51.1597 19.3899 53.6347V57.6497H32.5899V55.0647V53.6347C32.5899 53.3597 32.5899 53.1397 32.5349 52.9197C32.6449 52.7547 32.6449 52.6997 32.5899 52.5897ZM37.3749 23.5497C37.4849 23.7147 37.5949 23.8797 37.7049 23.9897C37.7599 24.0447 37.7599 24.0447 37.8149 24.0997C37.9249 24.2647 38.0899 24.4297 38.2549 24.5397C36.2749 25.6947 34.9549 27.7847 34.9549 30.2597V34.2747H48.1549V30.2597C48.1549 28.0047 47.0549 26.0797 45.3499 24.8697C45.1849 24.7597 45.0199 24.6497 44.8549 24.5397C45.0199 24.3747 45.1299 24.2647 45.2949 24.0997C45.3499 24.0447 45.3499 24.0447 45.4049 23.9897C45.5149 23.8247 45.6249 23.7147 45.7349 23.5497C45.7349 23.5497 45.7349 23.5497 45.7349 23.4947C45.9549 23.1097 46.1199 22.7247 46.2849 22.2847C46.3949 21.8997 46.4499 21.4597 46.4499 21.0197C46.4499 18.3247 44.2499 16.1797 41.6099 16.1797C38.9149 16.1797 36.7699 18.3797 36.7699 21.0197C36.6599 21.8997 36.8799 22.7797 37.3749 23.5497C37.3749 23.4947 37.3749 23.4947 37.3749 23.5497ZM26.4849 37.8497C27.0349 32.7897 30.0599 28.4997 34.3499 26.1897C34.7349 25.4747 35.2849 24.8147 35.8899 24.2097C35.6149 23.7697 35.3949 23.2747 35.2849 22.7247C28.8499 25.1447 24.1749 31.1397 23.6799 38.2897C24.4499 37.9597 25.2749 37.7947 26.0999 37.7947C26.2099 37.8497 26.3199 37.8497 26.4849 37.8497ZM34.2949 52.8097C34.2949 53.0847 34.3499 53.3597 34.3499 53.6347V55.8897C36.5499 56.8247 38.9699 57.3747 41.4999 57.3747C44.0299 57.3747 46.4499 56.8247 48.6499 55.8897V53.6347C48.6499 53.3597 48.6499 53.0847 48.7049 52.8097C46.5599 53.9647 44.1399 54.6247 41.4999 54.6247C38.8599 54.6247 36.4399 53.9647 34.2949 52.8097ZM56.5149 37.8497C56.6249 37.8497 56.7349 37.8497 56.8999 37.8497C57.7799 37.8497 58.6049 38.0147 59.3199 38.3447C58.8799 31.1947 54.1499 25.1997 47.7149 22.7797C47.5499 23.2747 47.3849 23.7697 47.1099 24.2647C47.7149 24.8147 48.2649 25.5297 48.6499 26.2447C52.9399 28.4997 55.9649 32.8447 56.5149 37.8497Z" fill="white"/>
</svg>
