<svg width="81" height="81" viewBox="0 0 81 81" fill="none" xmlns="http://www.w3.org/2000/svg">
<circle cx="40.1755" cy="40.1755" r="40.1755" fill="#CC2131"/>
<path d="M22.921 40.7485C22.921 39.5987 23.2619 38.4748 23.9007 37.5188C24.5395 36.5629 25.4474 35.8178 26.5096 35.3778C27.5718 34.9378 28.7407 34.8227 29.8683 35.047C30.996 35.2713 32.0318 35.8249 32.8448 36.6379C33.6578 37.4509 34.2114 38.4867 34.4357 39.6144C34.66 40.742 34.5449 41.9109 34.1049 42.9731C33.6649 44.0353 32.9198 44.9432 31.9639 45.582C31.0079 46.2208 29.884 46.5617 28.7342 46.5617C27.1934 46.5587 25.7165 45.9453 24.627 44.8557C23.5374 43.7662 22.924 42.2893 22.921 40.7485V40.7485ZM36.4095 54.5322C35.9358 52.6533 34.7908 51.0128 33.1906 49.9203C31.5903 48.8277 29.6455 48.3588 27.7232 48.6018C25.8008 48.8449 24.0339 49.7833 22.756 51.2398C21.4781 52.6962 20.7775 54.5701 20.7865 56.5078V58.7785C20.7865 59.0797 20.9061 59.3685 21.119 59.5814C21.3319 59.7943 21.6207 59.9139 21.9219 59.9139H35.5466C35.8477 59.9139 36.1365 59.7943 36.3494 59.5814C36.5624 59.3685 36.682 59.0797 36.682 58.7785V57.734L44.3572 48.56H41.4052L36.4095 54.5322ZM63.9314 47.4246C63.9314 47.7257 63.8118 48.0145 63.5989 48.2275C63.386 48.4404 63.0972 48.56 62.796 48.56H44.3572L52.305 39.0681C52.4593 38.8358 52.5228 38.5549 52.4833 38.2788C52.4438 38.0027 52.304 37.7509 52.0907 37.5712C51.8774 37.3916 51.6054 37.2968 51.3266 37.3048C51.0479 37.3128 50.7818 37.4232 50.5792 37.6148L41.4052 48.56H35.1378C34.5812 48.1069 33.9802 47.7113 33.3439 47.3792C34.7586 46.3982 35.8229 44.9909 36.3814 43.3625C36.94 41.7341 36.9637 39.9698 36.4491 38.327C35.9344 36.6842 34.9084 35.2488 33.5206 34.2302C32.1327 33.2116 30.4557 32.663 28.7342 32.6645C27.5551 32.6613 26.3906 32.9253 25.328 33.4366V23.5813H24.1926C23.8915 23.5813 23.6027 23.4617 23.3898 23.2488C23.1769 23.0359 23.0572 22.7471 23.0572 22.4459C23.0572 22.1448 23.1769 21.856 23.3898 21.6431C23.6027 21.4302 23.8915 21.3105 24.1926 21.3105H62.796C63.0972 21.3105 63.386 21.4302 63.5989 21.6431C63.8118 21.856 63.9314 22.1448 63.9314 22.4459C63.9314 22.7471 63.8118 23.0359 63.5989 23.2488C63.386 23.4617 63.0972 23.5813 62.796 23.5813H61.6606V46.2892H62.796C63.0972 46.2892 63.386 46.4088 63.5989 46.6218C63.8118 46.8347 63.9314 47.1235 63.9314 47.4246ZM54.8483 33.7999C54.8483 33.4988 54.7287 33.21 54.5157 32.997C54.3028 32.7841 54.014 32.6645 53.7129 32.6645H35.5466C35.2455 32.6645 34.9567 32.7841 34.7437 32.997C34.5308 33.21 34.4112 33.4988 34.4112 33.7999C34.4112 34.101 34.5308 34.3898 34.7437 34.6027C34.9567 34.8157 35.2455 34.9353 35.5466 34.9353H53.7129C54.014 34.9353 54.3028 34.8157 54.5157 34.6027C54.7287 34.3898 54.8483 34.101 54.8483 33.7999ZM54.8483 29.2583C54.8483 28.9572 54.7287 28.6684 54.5157 28.4555C54.3028 28.2425 54.014 28.1229 53.7129 28.1229H40.0882C39.787 28.1229 39.4982 28.2425 39.2853 28.4555C39.0724 28.6684 38.9528 28.9572 38.9528 29.2583C38.9528 29.5594 39.0724 29.8482 39.2853 30.0611C39.4982 30.2741 39.787 30.3937 40.0882 30.3937H53.7129C54.014 30.3937 54.3028 30.2741 54.5157 30.0611C54.7287 29.8482 54.8483 29.5594 54.8483 29.2583Z" fill="white"/>
</svg>
